<?xml version="1.0" standalone="no"?><!-- Generator: Gravit.io --><svg xmlns="http://www.w3.org/2000/svg" xmlns:xlink="http://www.w3.org/1999/xlink" style="isolation:isolate" viewBox="0 -28.5 2160.5 540.5" width="2160.5" height="540.5"><g><linearGradient id="_lgradient_0" x1="0" y1="0.5" x2="1" y2="0.5" gradientTransform="matrix(512,0,0,512,0,0)" gradientUnits="userSpaceOnUse"><stop offset="0%" stop-opacity="1" style="stop-color:rgb(0,241,255)"/><stop offset="23.1%" stop-opacity="1" style="stop-color:rgb(0,216,255)"/><stop offset="51.38%" stop-opacity="1" style="stop-color:rgb(0,192,255)"/><stop offset="77.73%" stop-opacity="1" style="stop-color:rgb(0,178,255)"/><stop offset="100%" stop-opacity="1" style="stop-color:rgb(0,173,255)"/></linearGradient><path d=" M 512 256 C 512 397.387 397.387 512 256 512 C 114.613 512 0 397.387 0 256 C 0 114.613 114.613 0 256 0 C 397.387 0 512 114.613 512 256 Z " fill="url(#_lgradient_0)"/><g><path d=" M 408.5 320.094 C 416.785 320.094 423.5 313.375 423.5 305.094 L 423.5 142.219 C 423.5 112.57 399.379 88.449 369.73 88.449 L 142.27 88.449 C 112.621 88.449 88.5 112.57 88.5 142.219 L 88.5 369.676 C 88.5 399.324 112.621 423.449 142.27 423.449 L 369.727 423.449 C 399.379 423.449 423.5 399.328 423.5 369.676 C 423.5 361.395 416.781 354.676 408.5 354.676 C 400.215 354.676 393.5 361.395 393.5 369.676 C 393.5 382.785 382.836 393.449 369.727 393.449 L 142.27 393.449 C 129.164 393.449 118.5 382.785 118.5 369.676 L 118.5 142.219 C 118.5 129.113 129.164 118.449 142.27 118.449 L 369.727 118.449 C 382.836 118.449 393.5 129.113 393.5 142.219 L 393.5 305.094 C 393.5 313.375 400.215 320.094 408.5 320.094 L 408.5 320.094 Z " fill="rgb(255,255,255)"/><path d=" M 371.805 305.059 C 371.805 296.773 365.09 290.059 356.805 290.059 L 155.84 290.059 C 147.559 290.059 140.84 296.773 140.84 305.059 C 140.84 313.344 147.559 320.059 155.84 320.059 L 356.805 320.059 C 365.09 320.059 371.805 313.344 371.805 305.059 Z " fill="rgb(255,255,255)"/><path d=" M 329.664 268.363 C 337.949 268.363 344.664 261.648 344.664 253.363 C 344.664 245.078 337.949 238.363 329.664 238.363 L 182.98 238.363 C 174.695 238.363 167.98 245.078 167.98 253.363 C 167.98 261.648 174.695 268.363 182.98 268.363 L 329.664 268.363 Z " fill="rgb(255,255,255)"/><path d=" M 195.902 341.754 C 187.621 341.754 180.902 348.469 180.902 356.754 C 180.902 365.035 187.621 371.754 195.902 371.754 L 316.742 371.754 C 325.023 371.754 331.742 365.035 331.742 356.754 C 331.742 348.469 325.023 341.754 316.742 341.754 L 195.902 341.754 Z " fill="rgb(255,255,255)"/></g></g><linearGradient id="_lgradient_1" x1="0.2097288676236051" y1="0.7923976608187138" x2="0.847687400318978" y2="0.2607655502392344" gradientTransform="matrix(57,0,0,57,483.5,-28.5)" gradientUnits="userSpaceOnUse"><stop offset="0%" stop-opacity="1" style="stop-color:rgb(0,175,255)"/><stop offset="100%" stop-opacity="1" style="stop-color:rgb(0,230,255)"/></linearGradient><circle vector-effect="non-scaling-stroke" cx="512" cy="0" r="28.5" fill="url(#_lgradient_1)"/><g transform="matrix(1,0,0,1,540.5,81.312)"><text transform="matrix(1,0,0,1,0,279.6)" style="font-family:'Ubuntu';font-weight:400;font-size:300px;font-style:normal;fill:#00aeff;stroke:none;">Json</text><text transform="matrix(1,0,0,1,633,279.6)" style="font-family:'Ubuntu';font-weight:400;font-size:300px;font-style:normal;fill:#00ecff;stroke:none;">Format</text></g></svg>